<mxfile host="drawio-plugin" modified="2021-03-21T10:26:55.921Z" agent="5.0 (Windows NT 6.2; Win64; x64) AppleWebKit/537.36 (KHTML, like Gecko) Chrome/84.0.4147.105 Safari/537.36" etag="VHNsKHclpaDA56yg_jFw" version="13.7.9" type="embed"><diagram id="z9GGBRdCCO0snlSSUdsF" name="Page-1"><mxGraphModel dx="1838" dy="1187" grid="1" gridSize="10" guides="1" tooltips="1" connect="1" arrows="1" fold="1" page="1" pageScale="1" pageWidth="1600" pageHeight="900" background="#FFFFFF" math="0" shadow="0"><root><mxCell id="0"/><mxCell id="1" parent="0"/><mxCell id="0tGutOWjcscQ6vJJ7oD2-1" value="Steam servers" style="whiteSpace=wrap;html=1;fillColor=#6d8764;strokeColor=#3A5431;fontSize=16;fontColor=#000000;labelBackgroundColor=none;" parent="1" vertex="1"><mxGeometry x="40" y="40" width="240" height="40" as="geometry"/></mxCell><mxCell id="0tGutOWjcscQ6vJJ7oD2-3" value="Frontend" style="whiteSpace=wrap;html=1;fillColor=#bac8d3;strokeColor=#23445d;fontSize=16;fontColor=#000000;labelBackgroundColor=none;" parent="1" vertex="1"><mxGeometry x="320" y="40" width="240" height="40" as="geometry"/></mxCell><mxCell id="0tGutOWjcscQ6vJJ7oD2-4" value="" style="endArrow=none;dashed=1;html=1;fontColor=#000000;labelBackgroundColor=none;strokeColor=#000000;" parent="1" source="0tGutOWjcscQ6vJJ7oD2-68" edge="1"><mxGeometry width="50" height="50" relative="1" as="geometry"><mxPoint x="440" y="600" as="sourcePoint"/><mxPoint x="439.5" y="80" as="targetPoint"/></mxGeometry></mxCell><mxCell id="0tGutOWjcscQ6vJJ7oD2-5" value="" style="endArrow=none;dashed=1;html=1;fontColor=#000000;labelBackgroundColor=none;strokeColor=#000000;" parent="1" source="0tGutOWjcscQ6vJJ7oD2-22" edge="1"><mxGeometry width="50" height="50" relative="1" as="geometry"><mxPoint x="160" y="520" as="sourcePoint"/><mxPoint x="159.5" y="80" as="targetPoint"/></mxGeometry></mxCell><mxCell id="0tGutOWjcscQ6vJJ7oD2-6" value="" style="endArrow=classic;entryX=1;entryY=0;entryDx=0;entryDy=0;startArrow=oval;startFill=1;fontColor=#000000;labelBackgroundColor=none;strokeColor=#000000;sketch=0;html=1;verticalAlign=top;labelPosition=center;verticalLabelPosition=bottom;align=center;" parent="1" target="0tGutOWjcscQ6vJJ7oD2-12" edge="1"><mxGeometry width="50" height="50" relative="1" as="geometry"><mxPoint x="440" y="120" as="sourcePoint"/><mxPoint x="200" y="120" as="targetPoint"/></mxGeometry></mxCell><mxCell id="3" value="&lt;span style=&quot;color: rgba(0 , 0 , 0 , 0) ; font-family: monospace ; font-size: 0px&quot;&gt;%3CmxGraphModel%3E%3Croot%3E%3CmxCell%20id%3D%220%22%2F%3E%3CmxCell%20id%3D%221%22%20parent%3D%220%22%2F%3E%3CmxCell%20id%3D%222%22%20value%3D%22%26lt%3Bspan%20style%3D%26quot%3Bfont-size%3A%2014px%20%3B%20font-weight%3A%20700%26quot%3B%26gt%3B%26lt%3Bfont%20color%3D%26quot%3B%23000000%26quot%3B%26gt%3B%D0%90%D0%B2%D1%82%D0%BE%D1%80%D0%B8%D0%B7%D0%B0%D1%86%D0%B8%D1%8F%26lt%3B%2Ffont%26gt%3B%26lt%3B%2Fspan%26gt%3B%22%20style%3D%22edgeLabel%3Bhtml%3D1%3Balign%3Dcenter%3BverticalAlign%3Dmiddle%3Bresizable%3D0%3Bpoints%3D%5B%5D%3BnoLabel%3D0%3B%22%20vertex%3D%221%22%20connectable%3D%220%22%20parent%3D%221%22%3E%3CmxGeometry%20x%3D%22299%22%20y%3D%22120%22%20as%3D%22geometry%22%2F%3E%3C%2FmxCell%3E%3C%2Froot%3E%3C%2FmxGraphModel%3E&lt;/span&gt;" style="edgeLabel;html=1;align=center;verticalAlign=middle;resizable=0;points=[];" vertex="1" connectable="0" parent="0tGutOWjcscQ6vJJ7oD2-6"><mxGeometry x="0.0516" y="-1" relative="1" as="geometry"><mxPoint as="offset"/></mxGeometry></mxCell><mxCell id="4" value="&lt;span style=&quot;color: rgba(0 , 0 , 0 , 0) ; font-family: monospace ; font-size: 0px&quot;&gt;%3CmxGraphModel%3E%3Croot%3E%3CmxCell%20id%3D%220%22%2F%3E%3CmxCell%20id%3D%221%22%20parent%3D%220%22%2F%3E%3CmxCell%20id%3D%222%22%20value%3D%22%26lt%3Bspan%20style%3D%26quot%3Bfont-size%3A%2014px%20%3B%20font-weight%3A%20700%26quot%3B%26gt%3B%26lt%3Bfont%20color%3D%26quot%3B%23000000%26quot%3B%26gt%3B%D0%90%D0%B2%D1%82%D0%BE%D1%80%D0%B8%D0%B7%D0%B0%D1%86%D0%B8%D1%8F%26lt%3B%2Ffont%26gt%3B%26lt%3B%2Fspan%26gt%3B%22%20style%3D%22edgeLabel%3Bhtml%3D1%3Balign%3Dcenter%3BverticalAlign%3Dmiddle%3Bresizable%3D0%3Bpoints%3D%5B%5D%3BnoLabel%3D0%3B%22%20vertex%3D%221%22%20connectable%3D%220%22%20parent%3D%221%22%3E%3CmxGeometry%20x%3D%22299%22%20y%3D%22120%22%20as%3D%22geometry%22%2F%3E%3C%2FmxCell%3E%3C%2Froot%3E%3C%2FmxGraphModel%3Fdфыв&lt;/span&gt;" style="edgeLabel;html=1;align=center;verticalAlign=middle;resizable=0;points=[];" vertex="1" connectable="0" parent="0tGutOWjcscQ6vJJ7oD2-6"><mxGeometry x="0.0604" y="-1" relative="1" as="geometry"><mxPoint as="offset"/></mxGeometry></mxCell><mxCell id="5" value="&lt;b&gt;&lt;font style=&quot;font-size: 14px&quot;&gt;Авторизация&lt;/font&gt;&lt;/b&gt;" style="edgeLabel;html=1;align=center;verticalAlign=middle;resizable=0;points=[];labelBackgroundColor=#ffffff;fontColor=#000000;labelBorderColor=#000000;spacingTop=0;spacingBottom=0;spacingLeft=0;spacingRight=0;" vertex="1" connectable="0" parent="0tGutOWjcscQ6vJJ7oD2-6"><mxGeometry x="0.0604" y="-2" relative="1" as="geometry"><mxPoint as="offset"/></mxGeometry></mxCell><mxCell id="0tGutOWjcscQ6vJJ7oD2-7" value="Backend" style="whiteSpace=wrap;html=1;fillColor=#647687;strokeColor=#314354;fontSize=16;fontColor=#000000;labelBackgroundColor=none;" parent="1" vertex="1"><mxGeometry x="600" y="40" width="240" height="40" as="geometry"/></mxCell><mxCell id="0tGutOWjcscQ6vJJ7oD2-8" value="Database" style="whiteSpace=wrap;html=1;fillColor=#d0cee2;strokeColor=#56517e;fontSize=16;fontColor=#000000;labelBackgroundColor=none;" parent="1" vertex="1"><mxGeometry x="880" y="40" width="240" height="40" as="geometry"/></mxCell><mxCell id="0tGutOWjcscQ6vJJ7oD2-9" value="" style="endArrow=none;dashed=1;html=1;fontColor=#000000;labelBackgroundColor=none;strokeColor=#000000;" parent="1" source="0tGutOWjcscQ6vJJ7oD2-39" edge="1"><mxGeometry width="50" height="50" relative="1" as="geometry"><mxPoint x="720" y="520" as="sourcePoint"/><mxPoint x="719.5799999999999" y="80" as="targetPoint"/></mxGeometry></mxCell><mxCell id="0tGutOWjcscQ6vJJ7oD2-10" value="" style="endArrow=none;dashed=1;html=1;fontColor=#000000;labelBackgroundColor=none;strokeColor=#000000;" parent="1" source="0tGutOWjcscQ6vJJ7oD2-24" edge="1"><mxGeometry width="50" height="50" relative="1" as="geometry"><mxPoint x="1000.0800000000002" y="520" as="sourcePoint"/><mxPoint x="999.5799999999997" y="80" as="targetPoint"/></mxGeometry></mxCell><mxCell id="0tGutOWjcscQ6vJJ7oD2-12" value="" style="whiteSpace=wrap;html=1;fontSize=16;fillColor=#eeeeee;strokeColor=#36393d;fontColor=#000000;labelBackgroundColor=none;" parent="1" vertex="1"><mxGeometry x="155" y="120" width="10" height="30" as="geometry"/></mxCell><mxCell id="0tGutOWjcscQ6vJJ7oD2-13" value="" style="endArrow=classic;html=1;fontSize=16;exitX=1;exitY=1;exitDx=0;exitDy=0;entryX=0;entryY=0;entryDx=0;entryDy=0;fontColor=#000000;labelBackgroundColor=none;strokeColor=#000000;" parent="1" source="0tGutOWjcscQ6vJJ7oD2-12" target="0tGutOWjcscQ6vJJ7oD2-39" edge="1"><mxGeometry width="50" height="50" relative="1" as="geometry"><mxPoint x="530" y="280" as="sourcePoint"/><mxPoint x="690" y="170" as="targetPoint"/></mxGeometry></mxCell><mxCell id="0tGutOWjcscQ6vJJ7oD2-14" value="Получение данных профиля" style="edgeLabel;html=1;align=center;verticalAlign=middle;resizable=0;points=[];fontSize=14;fontStyle=1;fontColor=#000000;labelBackgroundColor=#ffffff;labelBorderColor=#000000;" parent="0tGutOWjcscQ6vJJ7oD2-13" vertex="1" connectable="0"><mxGeometry x="0.1429" y="-1" relative="1" as="geometry"><mxPoint x="100.51999999999998" y="-1" as="offset"/></mxGeometry></mxCell><mxCell id="0tGutOWjcscQ6vJJ7oD2-17" value="" style="endArrow=classic;html=1;fontSize=16;startArrow=oval;startFill=1;entryX=0;entryY=0;entryDx=0;entryDy=0;fontColor=#000000;labelBackgroundColor=none;strokeColor=#000000;" parent="1" target="0tGutOWjcscQ6vJJ7oD2-46" edge="1"><mxGeometry width="50" height="50" relative="1" as="geometry"><mxPoint x="440" y="220" as="sourcePoint"/><mxPoint x="710" y="240" as="targetPoint"/></mxGeometry></mxCell><mxCell id="0tGutOWjcscQ6vJJ7oD2-18" value="Запрос графика&lt;br&gt;истории торговли" style="edgeLabel;html=1;align=center;verticalAlign=middle;resizable=0;points=[];fontSize=14;fontStyle=1;fontColor=#000000;labelBackgroundColor=#ffffff;labelBorderColor=#000000;" parent="0tGutOWjcscQ6vJJ7oD2-17" vertex="1" connectable="0"><mxGeometry x="0.1429" y="-1" relative="1" as="geometry"><mxPoint x="-20" y="-1" as="offset"/></mxGeometry></mxCell><mxCell id="0tGutOWjcscQ6vJJ7oD2-20" value="" style="endArrow=classic;html=1;fontSize=16;entryX=1;entryY=0;entryDx=0;entryDy=0;exitX=0;exitY=1;exitDx=0;exitDy=0;fontColor=#000000;labelBackgroundColor=none;strokeColor=#000000;" parent="1" source="0tGutOWjcscQ6vJJ7oD2-46" target="0tGutOWjcscQ6vJJ7oD2-22" edge="1"><mxGeometry width="50" height="50" relative="1" as="geometry"><mxPoint x="710" y="280" as="sourcePoint"/><mxPoint x="180" y="240" as="targetPoint"/></mxGeometry></mxCell><mxCell id="0tGutOWjcscQ6vJJ7oD2-21" value="Запрос данных об истории торговли" style="edgeLabel;html=1;align=center;verticalAlign=middle;resizable=0;points=[];fontSize=14;fontStyle=1;fontColor=#000000;labelBackgroundColor=#ffffff;labelBorderColor=#000000;" parent="0tGutOWjcscQ6vJJ7oD2-20" vertex="1" connectable="0"><mxGeometry x="0.1429" y="-1" relative="1" as="geometry"><mxPoint x="39.47999999999999" y="1" as="offset"/></mxGeometry></mxCell><mxCell id="0tGutOWjcscQ6vJJ7oD2-22" value="" style="whiteSpace=wrap;html=1;fontSize=16;fillColor=#eeeeee;strokeColor=#36393d;fontColor=#000000;labelBackgroundColor=none;" parent="1" vertex="1"><mxGeometry x="155" y="260" width="10" height="30" as="geometry"/></mxCell><mxCell id="0tGutOWjcscQ6vJJ7oD2-23" value="" style="endArrow=none;dashed=1;html=1;fontColor=#000000;labelBackgroundColor=none;strokeColor=#000000;" parent="1" target="0tGutOWjcscQ6vJJ7oD2-22" edge="1"><mxGeometry width="50" height="50" relative="1" as="geometry"><mxPoint x="160" y="760" as="sourcePoint"/><mxPoint x="159.5" y="80" as="targetPoint"/></mxGeometry></mxCell><mxCell id="0tGutOWjcscQ6vJJ7oD2-24" value="" style="whiteSpace=wrap;html=1;fontSize=16;fillColor=#eeeeee;strokeColor=#36393d;fontColor=#000000;labelBackgroundColor=none;" parent="1" vertex="1"><mxGeometry x="995" y="320" width="10" height="30" as="geometry"/></mxCell><mxCell id="0tGutOWjcscQ6vJJ7oD2-25" value="" style="endArrow=none;dashed=1;html=1;fontColor=#000000;labelBackgroundColor=none;strokeColor=#000000;" parent="1" source="0tGutOWjcscQ6vJJ7oD2-58" target="0tGutOWjcscQ6vJJ7oD2-24" edge="1"><mxGeometry width="50" height="50" relative="1" as="geometry"><mxPoint x="1000" y="600" as="sourcePoint"/><mxPoint x="999.5799999999997" y="80" as="targetPoint"/></mxGeometry></mxCell><mxCell id="0tGutOWjcscQ6vJJ7oD2-26" value="" style="endArrow=classic;html=1;fontSize=16;exitX=1;exitY=1;exitDx=0;exitDy=0;entryX=0;entryY=0;entryDx=0;entryDy=0;fontColor=#000000;labelBackgroundColor=none;strokeColor=#000000;" parent="1" source="0tGutOWjcscQ6vJJ7oD2-22" target="0tGutOWjcscQ6vJJ7oD2-48" edge="1"><mxGeometry width="50" height="50" relative="1" as="geometry"><mxPoint x="725" y="360" as="sourcePoint"/><mxPoint x="710" y="320" as="targetPoint"/></mxGeometry></mxCell><mxCell id="0tGutOWjcscQ6vJJ7oD2-27" value="Получение данных об истории торговли" style="edgeLabel;html=1;align=center;verticalAlign=middle;resizable=0;points=[];fontSize=14;fontStyle=1;fontColor=#000000;labelBackgroundColor=#ffffff;labelBorderColor=#000000;" parent="0tGutOWjcscQ6vJJ7oD2-26" vertex="1" connectable="0"><mxGeometry x="0.1429" y="-1" relative="1" as="geometry"><mxPoint x="-47.500000000000014" y="-1" as="offset"/></mxGeometry></mxCell><mxCell id="0tGutOWjcscQ6vJJ7oD2-30" value="" style="endArrow=classic;html=1;fontSize=16;entryX=0;entryY=0;entryDx=0;entryDy=0;exitX=1;exitY=1;exitDx=0;exitDy=0;fontColor=#000000;labelBackgroundColor=none;strokeColor=#000000;" parent="1" source="0tGutOWjcscQ6vJJ7oD2-48" target="0tGutOWjcscQ6vJJ7oD2-24" edge="1"><mxGeometry width="50" height="50" relative="1" as="geometry"><mxPoint x="730" y="360" as="sourcePoint"/><mxPoint x="980" y="320" as="targetPoint"/></mxGeometry></mxCell><mxCell id="0tGutOWjcscQ6vJJ7oD2-31" value="Запись в базу" style="edgeLabel;html=1;align=center;verticalAlign=middle;resizable=0;points=[];fontSize=14;fontStyle=1;fontColor=#000000;labelBackgroundColor=#ffffff;labelBorderColor=#000000;" parent="0tGutOWjcscQ6vJJ7oD2-30" vertex="1" connectable="0"><mxGeometry x="0.1429" y="-1" relative="1" as="geometry"><mxPoint x="-20" y="-1" as="offset"/></mxGeometry></mxCell><mxCell id="0tGutOWjcscQ6vJJ7oD2-37" value="" style="endArrow=classic;html=1;fontSize=16;exitX=0;exitY=1;exitDx=0;exitDy=0;fontColor=#000000;labelBackgroundColor=none;strokeColor=#000000;" parent="1" source="0tGutOWjcscQ6vJJ7oD2-39" edge="1"><mxGeometry width="50" height="50" relative="1" as="geometry"><mxPoint x="710" y="200" as="sourcePoint"/><mxPoint x="440" y="180" as="targetPoint"/></mxGeometry></mxCell><mxCell id="0tGutOWjcscQ6vJJ7oD2-38" value="Данные профиля" style="edgeLabel;html=1;align=center;verticalAlign=middle;resizable=0;points=[];fontSize=14;fontStyle=1;fontColor=#000000;labelBackgroundColor=#ffffff;labelBorderColor=#000000;" parent="0tGutOWjcscQ6vJJ7oD2-37" vertex="1" connectable="0"><mxGeometry x="0.1429" y="-1" relative="1" as="geometry"><mxPoint x="19.400000000000006" y="1" as="offset"/></mxGeometry></mxCell><mxCell id="0tGutOWjcscQ6vJJ7oD2-40" value="" style="endArrow=classic;html=1;fontSize=16;exitX=0;exitY=1;exitDx=0;exitDy=0;entryX=1;entryY=0;entryDx=0;entryDy=0;fontColor=#000000;labelBackgroundColor=none;strokeColor=#000000;" parent="1" source="0tGutOWjcscQ6vJJ7oD2-24" target="0tGutOWjcscQ6vJJ7oD2-49" edge="1"><mxGeometry width="50" height="50" relative="1" as="geometry"><mxPoint x="990" y="400" as="sourcePoint"/><mxPoint x="730" y="400" as="targetPoint"/></mxGeometry></mxCell><mxCell id="0tGutOWjcscQ6vJJ7oD2-41" value="Обработка данных" style="edgeLabel;html=1;align=center;verticalAlign=middle;resizable=0;points=[];fontSize=14;fontStyle=1;fontColor=#000000;labelBackgroundColor=#ffffff;labelBorderColor=#000000;" parent="0tGutOWjcscQ6vJJ7oD2-40" vertex="1" connectable="0"><mxGeometry x="0.1429" y="-1" relative="1" as="geometry"><mxPoint x="39.47999999999999" y="1" as="offset"/></mxGeometry></mxCell><mxCell id="0tGutOWjcscQ6vJJ7oD2-42" value="" style="endArrow=classic;html=1;fontSize=16;exitX=0;exitY=1;exitDx=0;exitDy=0;fontColor=#000000;labelBackgroundColor=none;strokeColor=#000000;" parent="1" source="0tGutOWjcscQ6vJJ7oD2-49" edge="1"><mxGeometry width="50" height="50" relative="1" as="geometry"><mxPoint x="710" y="440" as="sourcePoint"/><mxPoint x="440" y="380" as="targetPoint"/></mxGeometry></mxCell><mxCell id="0tGutOWjcscQ6vJJ7oD2-43" value="Отрисовка графика" style="edgeLabel;html=1;align=center;verticalAlign=middle;resizable=0;points=[];fontSize=14;fontStyle=1;fontColor=#000000;labelBackgroundColor=#ffffff;labelBorderColor=#000000;" parent="0tGutOWjcscQ6vJJ7oD2-42" vertex="1" connectable="0"><mxGeometry x="0.1429" y="-1" relative="1" as="geometry"><mxPoint x="18.56999999999999" y="1" as="offset"/></mxGeometry></mxCell><mxCell id="0tGutOWjcscQ6vJJ7oD2-39" value="" style="whiteSpace=wrap;html=1;fontSize=16;fillColor=#eeeeee;strokeColor=#36393d;fontColor=#000000;labelBackgroundColor=none;" parent="1" vertex="1"><mxGeometry x="715" y="150" width="10" height="30" as="geometry"/></mxCell><mxCell id="0tGutOWjcscQ6vJJ7oD2-45" value="" style="endArrow=none;dashed=1;html=1;fontColor=#000000;labelBackgroundColor=none;" parent="1" source="0tGutOWjcscQ6vJJ7oD2-46" target="0tGutOWjcscQ6vJJ7oD2-39" edge="1"><mxGeometry width="50" height="50" relative="1" as="geometry"><mxPoint x="720" y="520" as="sourcePoint"/><mxPoint x="719.5799999999999" y="80" as="targetPoint"/></mxGeometry></mxCell><mxCell id="0tGutOWjcscQ6vJJ7oD2-46" value="" style="whiteSpace=wrap;html=1;fontSize=16;fillColor=#eeeeee;strokeColor=#36393d;fontColor=#000000;labelBackgroundColor=none;" parent="1" vertex="1"><mxGeometry x="715" y="220" width="10" height="40" as="geometry"/></mxCell><mxCell id="0tGutOWjcscQ6vJJ7oD2-47" value="" style="endArrow=none;dashed=1;html=1;fontColor=#000000;labelBackgroundColor=none;" parent="1" source="0tGutOWjcscQ6vJJ7oD2-48" target="0tGutOWjcscQ6vJJ7oD2-46" edge="1"><mxGeometry width="50" height="50" relative="1" as="geometry"><mxPoint x="720" y="520" as="sourcePoint"/><mxPoint x="720" y="200" as="targetPoint"/></mxGeometry></mxCell><mxCell id="0tGutOWjcscQ6vJJ7oD2-48" value="" style="whiteSpace=wrap;html=1;fontSize=16;fillColor=#eeeeee;strokeColor=#36393d;fontColor=#000000;labelBackgroundColor=none;" parent="1" vertex="1"><mxGeometry x="715" y="290" width="10" height="30" as="geometry"/></mxCell><mxCell id="0tGutOWjcscQ6vJJ7oD2-50" value="" style="endArrow=none;dashed=1;html=1;fontColor=#000000;labelBackgroundColor=none;" parent="1" source="0tGutOWjcscQ6vJJ7oD2-49" target="0tGutOWjcscQ6vJJ7oD2-48" edge="1"><mxGeometry width="50" height="50" relative="1" as="geometry"><mxPoint x="720" y="520" as="sourcePoint"/><mxPoint x="720" y="280" as="targetPoint"/></mxGeometry></mxCell><mxCell id="0tGutOWjcscQ6vJJ7oD2-49" value="" style="whiteSpace=wrap;html=1;fontSize=16;fillColor=#eeeeee;strokeColor=#36393d;fontColor=#000000;labelBackgroundColor=none;" parent="1" vertex="1"><mxGeometry x="715" y="350" width="10" height="30" as="geometry"/></mxCell><mxCell id="0tGutOWjcscQ6vJJ7oD2-51" value="" style="endArrow=none;dashed=1;html=1;fontColor=#000000;labelBackgroundColor=none;strokeColor=#000000;" parent="1" source="0tGutOWjcscQ6vJJ7oD2-64" target="0tGutOWjcscQ6vJJ7oD2-49" edge="1"><mxGeometry width="50" height="50" relative="1" as="geometry"><mxPoint x="720" y="600" as="sourcePoint"/><mxPoint x="720" y="360" as="targetPoint"/></mxGeometry></mxCell><mxCell id="0tGutOWjcscQ6vJJ7oD2-52" value="" style="endArrow=classic;html=1;fontSize=16;startArrow=oval;startFill=1;entryX=1;entryY=0;entryDx=0;entryDy=0;fontColor=#000000;labelBackgroundColor=none;strokeColor=#000000;" parent="1" target="0tGutOWjcscQ6vJJ7oD2-54" edge="1"><mxGeometry width="50" height="50" relative="1" as="geometry"><mxPoint x="440" y="420" as="sourcePoint"/><mxPoint x="190" y="420" as="targetPoint"/></mxGeometry></mxCell><mxCell id="0tGutOWjcscQ6vJJ7oD2-53" value="Запрос инвентаря" style="edgeLabel;html=1;align=center;verticalAlign=middle;resizable=0;points=[];fontSize=14;fontStyle=1;fontColor=#000000;labelBackgroundColor=#ffffff;labelBorderColor=#000000;" parent="0tGutOWjcscQ6vJJ7oD2-52" vertex="1" connectable="0"><mxGeometry x="0.1429" y="-1" relative="1" as="geometry"><mxPoint x="20" y="-1" as="offset"/></mxGeometry></mxCell><mxCell id="0tGutOWjcscQ6vJJ7oD2-54" value="" style="whiteSpace=wrap;html=1;fontSize=16;fillColor=#eeeeee;strokeColor=#36393d;fontColor=#000000;labelBackgroundColor=none;" parent="1" vertex="1"><mxGeometry x="155" y="420" width="10" height="30" as="geometry"/></mxCell><mxCell id="0tGutOWjcscQ6vJJ7oD2-55" value="" style="endArrow=classic;html=1;fontSize=16;exitX=1;exitY=1;exitDx=0;exitDy=0;entryX=0;entryY=0;entryDx=0;entryDy=0;fontColor=#000000;labelBackgroundColor=none;strokeColor=#000000;" parent="1" source="0tGutOWjcscQ6vJJ7oD2-54" target="0tGutOWjcscQ6vJJ7oD2-57" edge="1"><mxGeometry width="50" height="50" relative="1" as="geometry"><mxPoint x="180" y="450" as="sourcePoint"/><mxPoint x="640" y="450" as="targetPoint"/></mxGeometry></mxCell><mxCell id="0tGutOWjcscQ6vJJ7oD2-56" value="Получение данных об инвентаре" style="edgeLabel;html=1;align=center;verticalAlign=middle;resizable=0;points=[];fontSize=14;fontStyle=1;fontColor=#000000;labelBackgroundColor=#ffffff;labelBorderColor=#000000;" parent="0tGutOWjcscQ6vJJ7oD2-55" vertex="1" connectable="0"><mxGeometry x="0.1429" y="-1" relative="1" as="geometry"><mxPoint x="-47.500000000000014" y="-1" as="offset"/></mxGeometry></mxCell><mxCell id="0tGutOWjcscQ6vJJ7oD2-57" value="" style="whiteSpace=wrap;html=1;fontSize=16;fillColor=#eeeeee;strokeColor=#36393d;fontColor=#000000;labelBackgroundColor=none;" parent="1" vertex="1"><mxGeometry x="715" y="450" width="10" height="30" as="geometry"/></mxCell><mxCell id="0tGutOWjcscQ6vJJ7oD2-59" value="" style="endArrow=classic;html=1;fontSize=16;exitX=1;exitY=1;exitDx=0;exitDy=0;entryX=0;entryY=0;entryDx=0;entryDy=0;fontColor=#000000;labelBackgroundColor=none;strokeColor=#000000;" parent="1" source="0tGutOWjcscQ6vJJ7oD2-57" target="0tGutOWjcscQ6vJJ7oD2-58" edge="1"><mxGeometry width="50" height="50" relative="1" as="geometry"><mxPoint x="750" y="480" as="sourcePoint"/><mxPoint x="960" y="480" as="targetPoint"/></mxGeometry></mxCell><mxCell id="0tGutOWjcscQ6vJJ7oD2-60" value="Запись в базу" style="edgeLabel;html=1;align=center;verticalAlign=middle;resizable=0;points=[];fontSize=14;fontStyle=1;fontColor=#000000;labelBackgroundColor=#ffffff;labelBorderColor=#000000;" parent="0tGutOWjcscQ6vJJ7oD2-59" vertex="1" connectable="0"><mxGeometry x="0.1429" y="-1" relative="1" as="geometry"><mxPoint x="-20" y="-1" as="offset"/></mxGeometry></mxCell><mxCell id="0tGutOWjcscQ6vJJ7oD2-58" value="" style="whiteSpace=wrap;html=1;fontSize=16;fillColor=#eeeeee;strokeColor=#36393d;fontColor=#000000;labelBackgroundColor=none;" parent="1" vertex="1"><mxGeometry x="995" y="480" width="10" height="30" as="geometry"/></mxCell><mxCell id="0tGutOWjcscQ6vJJ7oD2-61" value="" style="endArrow=none;dashed=1;html=1;fontColor=#000000;labelBackgroundColor=none;strokeColor=#000000;" parent="1" source="0tGutOWjcscQ6vJJ7oD2-78" target="0tGutOWjcscQ6vJJ7oD2-58" edge="1"><mxGeometry width="50" height="50" relative="1" as="geometry"><mxPoint x="1000" y="720" as="sourcePoint"/><mxPoint x="1000" y="350" as="targetPoint"/></mxGeometry></mxCell><mxCell id="0tGutOWjcscQ6vJJ7oD2-62" value="" style="endArrow=classic;html=1;fontSize=16;exitX=0;exitY=1;exitDx=0;exitDy=0;entryX=1;entryY=0;entryDx=0;entryDy=0;fontColor=#000000;labelBackgroundColor=none;strokeColor=#000000;" parent="1" source="0tGutOWjcscQ6vJJ7oD2-58" target="0tGutOWjcscQ6vJJ7oD2-64" edge="1"><mxGeometry width="50" height="50" relative="1" as="geometry"><mxPoint x="970" y="550" as="sourcePoint"/><mxPoint x="760" y="510" as="targetPoint"/></mxGeometry></mxCell><mxCell id="0tGutOWjcscQ6vJJ7oD2-63" value="Обработка данных" style="edgeLabel;html=1;align=center;verticalAlign=middle;resizable=0;points=[];fontSize=14;fontStyle=1;fontColor=#000000;labelBackgroundColor=#ffffff;labelBorderColor=#000000;" parent="0tGutOWjcscQ6vJJ7oD2-62" vertex="1" connectable="0"><mxGeometry x="0.1429" y="-1" relative="1" as="geometry"><mxPoint x="19.47999999999999" y="1" as="offset"/></mxGeometry></mxCell><mxCell id="0tGutOWjcscQ6vJJ7oD2-64" value="" style="whiteSpace=wrap;html=1;fontSize=16;fillColor=#eeeeee;strokeColor=#36393d;fontColor=#000000;labelBackgroundColor=none;" parent="1" vertex="1"><mxGeometry x="715" y="510" width="10" height="30" as="geometry"/></mxCell><mxCell id="0tGutOWjcscQ6vJJ7oD2-65" value="" style="endArrow=none;dashed=1;html=1;fontColor=#000000;labelBackgroundColor=none;strokeColor=#000000;" parent="1" source="0tGutOWjcscQ6vJJ7oD2-74" target="0tGutOWjcscQ6vJJ7oD2-64" edge="1"><mxGeometry width="50" height="50" relative="1" as="geometry"><mxPoint x="720" y="720" as="sourcePoint"/><mxPoint x="720" y="380" as="targetPoint"/></mxGeometry></mxCell><mxCell id="0tGutOWjcscQ6vJJ7oD2-66" value="" style="endArrow=classic;html=1;fontSize=16;exitX=0;exitY=1;exitDx=0;exitDy=0;entryX=1;entryY=0;entryDx=0;entryDy=0;fontColor=#000000;labelBackgroundColor=none;strokeColor=#000000;" parent="1" source="0tGutOWjcscQ6vJJ7oD2-64" target="0tGutOWjcscQ6vJJ7oD2-68" edge="1"><mxGeometry width="50" height="50" relative="1" as="geometry"><mxPoint x="710" y="560.0000000000001" as="sourcePoint"/><mxPoint x="440" y="560.0000000000001" as="targetPoint"/></mxGeometry></mxCell><mxCell id="0tGutOWjcscQ6vJJ7oD2-67" value="Отрисовка инвентаря" style="edgeLabel;html=1;align=center;verticalAlign=middle;resizable=0;points=[];fontSize=14;fontStyle=1;fontColor=#000000;labelBackgroundColor=#ffffff;labelBorderColor=#000000;" parent="0tGutOWjcscQ6vJJ7oD2-66" vertex="1" connectable="0"><mxGeometry x="0.1429" y="-1" relative="1" as="geometry"><mxPoint x="19.47999999999999" y="1" as="offset"/></mxGeometry></mxCell><mxCell id="0tGutOWjcscQ6vJJ7oD2-69" value="" style="whiteSpace=wrap;html=1;fontSize=16;fillColor=#eeeeee;strokeColor=#36393d;fontColor=#000000;labelBackgroundColor=none;" parent="1" vertex="1"><mxGeometry x="155" y="570" width="10" height="50" as="geometry"/></mxCell><mxCell id="0tGutOWjcscQ6vJJ7oD2-68" value="" style="whiteSpace=wrap;html=1;fontSize=16;fillColor=#eeeeee;strokeColor=#36393d;fontColor=#000000;labelBackgroundColor=none;" parent="1" vertex="1"><mxGeometry x="435" y="540" width="10" height="30" as="geometry"/></mxCell><mxCell id="0tGutOWjcscQ6vJJ7oD2-70" value="" style="endArrow=none;dashed=1;html=1;fontColor=#000000;labelBackgroundColor=none;strokeColor=#000000;" parent="1" target="0tGutOWjcscQ6vJJ7oD2-68" edge="1"><mxGeometry width="50" height="50" relative="1" as="geometry"><mxPoint x="440" y="760" as="sourcePoint"/><mxPoint x="439.5" y="80" as="targetPoint"/></mxGeometry></mxCell><mxCell id="0tGutOWjcscQ6vJJ7oD2-72" value="" style="endArrow=classic;html=1;fontSize=16;exitX=0;exitY=1;exitDx=0;exitDy=0;entryX=1;entryY=0;entryDx=0;entryDy=0;fontColor=#000000;labelBackgroundColor=none;strokeColor=#000000;" parent="1" source="0tGutOWjcscQ6vJJ7oD2-68" target="0tGutOWjcscQ6vJJ7oD2-69" edge="1"><mxGeometry width="50" height="50" relative="1" as="geometry"><mxPoint x="420" y="540" as="sourcePoint"/><mxPoint x="150" y="540" as="targetPoint"/></mxGeometry></mxCell><mxCell id="0tGutOWjcscQ6vJJ7oD2-73" value="Запрос данных о предмете&lt;br&gt;с торговой площадки" style="edgeLabel;html=1;align=center;verticalAlign=middle;resizable=0;points=[];fontSize=14;fontStyle=1;fontColor=#000000;labelBackgroundColor=#ffffff;labelBorderColor=#000000;" parent="0tGutOWjcscQ6vJJ7oD2-72" vertex="1" connectable="0"><mxGeometry x="0.1429" y="-1" relative="1" as="geometry"><mxPoint x="19.47999999999999" y="1" as="offset"/></mxGeometry></mxCell><mxCell id="0tGutOWjcscQ6vJJ7oD2-74" value="" style="whiteSpace=wrap;html=1;fontSize=16;fillColor=#eeeeee;strokeColor=#36393d;fontColor=#000000;labelBackgroundColor=none;" parent="1" vertex="1"><mxGeometry x="715" y="620" width="10" height="30" as="geometry"/></mxCell><mxCell id="0tGutOWjcscQ6vJJ7oD2-75" value="" style="endArrow=none;dashed=1;html=1;fontColor=#000000;labelBackgroundColor=none;" parent="1" source="0tGutOWjcscQ6vJJ7oD2-88" target="0tGutOWjcscQ6vJJ7oD2-74" edge="1"><mxGeometry width="50" height="50" relative="1" as="geometry"><mxPoint x="720" y="760" as="sourcePoint"/><mxPoint x="720" y="540" as="targetPoint"/></mxGeometry></mxCell><mxCell id="0tGutOWjcscQ6vJJ7oD2-76" value="" style="endArrow=classic;html=1;fontSize=16;exitX=1;exitY=1;exitDx=0;exitDy=0;entryX=0;entryY=0;entryDx=0;entryDy=0;fontColor=#000000;labelBackgroundColor=none;strokeColor=#000000;" parent="1" source="0tGutOWjcscQ6vJJ7oD2-69" target="0tGutOWjcscQ6vJJ7oD2-74" edge="1"><mxGeometry width="50" height="50" relative="1" as="geometry"><mxPoint x="175" y="610" as="sourcePoint"/><mxPoint x="725" y="610" as="targetPoint"/></mxGeometry></mxCell><mxCell id="0tGutOWjcscQ6vJJ7oD2-77" value="Получение данных о предмете" style="edgeLabel;html=1;align=center;verticalAlign=middle;resizable=0;points=[];fontSize=14;fontStyle=1;fontColor=#000000;labelBackgroundColor=#ffffff;labelBorderColor=#000000;" parent="0tGutOWjcscQ6vJJ7oD2-76" vertex="1" connectable="0"><mxGeometry x="0.1429" y="-1" relative="1" as="geometry"><mxPoint x="-47.500000000000014" y="-1" as="offset"/></mxGeometry></mxCell><mxCell id="0tGutOWjcscQ6vJJ7oD2-78" value="" style="whiteSpace=wrap;html=1;fontSize=16;fillColor=#eeeeee;strokeColor=#36393d;fontColor=#000000;labelBackgroundColor=none;" parent="1" vertex="1"><mxGeometry x="995" y="650" width="10" height="30" as="geometry"/></mxCell><mxCell id="0tGutOWjcscQ6vJJ7oD2-83" value="" style="endArrow=none;dashed=1;html=1;fontColor=#000000;labelBackgroundColor=none;strokeColor=#000000;" parent="1" target="0tGutOWjcscQ6vJJ7oD2-78" edge="1"><mxGeometry width="50" height="50" relative="1" as="geometry"><mxPoint x="1000" y="760" as="sourcePoint"/><mxPoint x="1000" y="510" as="targetPoint"/></mxGeometry></mxCell><mxCell id="0tGutOWjcscQ6vJJ7oD2-84" value="" style="endArrow=classic;html=1;fontSize=16;exitX=1;exitY=1;exitDx=0;exitDy=0;entryX=0;entryY=0;entryDx=0;entryDy=0;fillColor=#eeeeee;strokeColor=#36393d;fontColor=#000000;labelBackgroundColor=none;" parent="1" source="0tGutOWjcscQ6vJJ7oD2-74" target="0tGutOWjcscQ6vJJ7oD2-78" edge="1"><mxGeometry width="50" height="50" relative="1" as="geometry"><mxPoint x="735" y="650" as="sourcePoint"/><mxPoint x="970" y="650" as="targetPoint"/></mxGeometry></mxCell><mxCell id="0tGutOWjcscQ6vJJ7oD2-85" value="Запись в базу" style="edgeLabel;html=1;align=center;verticalAlign=middle;resizable=0;points=[];fontSize=14;fontStyle=1;fontColor=#000000;labelBackgroundColor=#ffffff;labelBorderColor=#000000;" parent="0tGutOWjcscQ6vJJ7oD2-84" vertex="1" connectable="0"><mxGeometry x="0.1429" y="-1" relative="1" as="geometry"><mxPoint x="-20" y="-1" as="offset"/></mxGeometry></mxCell><mxCell id="0tGutOWjcscQ6vJJ7oD2-86" value="" style="endArrow=classic;html=1;fontSize=16;exitX=0;exitY=1;exitDx=0;exitDy=0;entryX=1;entryY=0;entryDx=0;entryDy=0;fontColor=#000000;labelBackgroundColor=none;strokeColor=#000000;" parent="1" source="0tGutOWjcscQ6vJJ7oD2-78" target="0tGutOWjcscQ6vJJ7oD2-88" edge="1"><mxGeometry width="50" height="50" relative="1" as="geometry"><mxPoint x="995" y="700" as="sourcePoint"/><mxPoint x="760" y="680" as="targetPoint"/></mxGeometry></mxCell><mxCell id="0tGutOWjcscQ6vJJ7oD2-87" value="Обработка данных" style="edgeLabel;html=1;align=center;verticalAlign=middle;resizable=0;points=[];fontSize=14;fontStyle=1;fontColor=#000000;labelBackgroundColor=#ffffff;labelBorderColor=#000000;" parent="0tGutOWjcscQ6vJJ7oD2-86" vertex="1" connectable="0"><mxGeometry x="0.1429" y="-1" relative="1" as="geometry"><mxPoint x="19.47999999999999" y="1" as="offset"/></mxGeometry></mxCell><mxCell id="0tGutOWjcscQ6vJJ7oD2-88" value="" style="whiteSpace=wrap;html=1;fontSize=16;fillColor=#eeeeee;strokeColor=#36393d;fontColor=#000000;labelBackgroundColor=none;" parent="1" vertex="1"><mxGeometry x="715" y="680" width="10" height="30" as="geometry"/></mxCell><mxCell id="0tGutOWjcscQ6vJJ7oD2-89" value="" style="endArrow=none;dashed=1;html=1;fontColor=#000000;labelBackgroundColor=none;strokeColor=#000000;" parent="1" target="0tGutOWjcscQ6vJJ7oD2-88" edge="1"><mxGeometry width="50" height="50" relative="1" as="geometry"><mxPoint x="720" y="760" as="sourcePoint"/><mxPoint x="720" y="650" as="targetPoint"/></mxGeometry></mxCell><mxCell id="0tGutOWjcscQ6vJJ7oD2-90" value="" style="endArrow=classic;html=1;fontSize=16;exitX=0;exitY=1;exitDx=0;exitDy=0;fontColor=#000000;labelBackgroundColor=none;strokeColor=#000000;" parent="1" source="0tGutOWjcscQ6vJJ7oD2-88" edge="1"><mxGeometry width="50" height="50" relative="1" as="geometry"><mxPoint x="695" y="710" as="sourcePoint"/><mxPoint x="440" y="710" as="targetPoint"/></mxGeometry></mxCell><mxCell id="0tGutOWjcscQ6vJJ7oD2-91" value="Отрисовка графика" style="edgeLabel;html=1;align=center;verticalAlign=middle;resizable=0;points=[];fontSize=14;fontStyle=1;fontColor=#000000;labelBackgroundColor=#ffffff;labelBorderColor=#000000;" parent="0tGutOWjcscQ6vJJ7oD2-90" vertex="1" connectable="0"><mxGeometry x="0.1429" y="-1" relative="1" as="geometry"><mxPoint x="18.56999999999999" y="1" as="offset"/></mxGeometry></mxCell></root></mxGraphModel></diagram></mxfile>